<?xml version="1.0" encoding="utf-8"?>
<!-- Generator: Adobe Illustrator 18.1.1, SVG Export Plug-In . SVG Version: 6.00 Build 0)  -->
<svg version="1.1" id="Layer_1" xmlns="http://www.w3.org/2000/svg" xmlns:xlink="http://www.w3.org/1999/xlink" x="0px" y="0px"
	 viewBox="0 0 841.9 595.3" enable-background="new 0 0 841.9 595.3" xml:space="preserve">
<g>
	<g>
		<g enable-background="new    ">
			<g>
				<polygon fill="#918E40" points="640.2,233.2 617.4,220.8 617.4,220.3 640.2,232.7 				"/>
			</g>
			<g>
				<polygon fill="#B9B452" points="617.5,182.6 594.7,170.2 602,169.2 624.8,181.6 				"/>
			</g>
			<g>
				<polygon fill="#918E40" points="624.8,181.6 602,169.2 602,154.6 624.8,167 				"/>
			</g>
			<g>
				<polygon fill="#B9B452" points="624.8,167 602,154.6 617.5,152.4 640.3,164.8 				"/>
			</g>
			<g>
				<polygon fill="#B9B452" points="566.3,243.6 543.5,231.2 617.4,220.8 640.2,233.2 				"/>
			</g>
			<g>
				<polygon fill="#918E40" points="566.3,243.6 543.5,231.2 543.5,230.7 566.3,243.1 				"/>
			</g>
			<g>
				<polygon fill="#969342" points="548.5,330.2 525.7,317.8 543.5,230.7 566.3,243.1 				"/>
			</g>
			<g>
				<polygon fill="#DBD461" points="640.2,232.7 665.6,313.7 548.5,330.2 566.3,243.1 566.3,243.6 640.2,233.2 				"/>
			</g>
			<g>
				<polygon fill="#B9B452" points="583.5,187.4 560.7,175 568,174 590.8,186.4 				"/>
			</g>
			<g>
				<polygon fill="#B9B452" points="590.8,171.8 568,159.4 594.7,155.6 617.5,168 				"/>
			</g>
			<g>
				<polygon fill="#918E40" points="590.8,186.4 568,174 568,159.4 590.8,171.8 				"/>
			</g>
			<g>
				<polygon fill="#DBD461" points="640.3,164.8 640.2,232.7 640.2,233.2 566.3,243.6 566.3,243.1 566.4,175.2 583.5,172.8 
					583.5,187.4 590.8,186.4 590.8,171.8 617.5,168 617.5,182.6 624.8,181.6 624.8,167 				"/>
			</g>
			<g>
				<polygon fill="#B9B452" points="566.4,175.2 543.6,162.8 560.7,160.4 583.5,172.8 				"/>
			</g>
			<g>
				<polygon fill="#918E40" points="566.3,243.1 543.5,230.7 543.6,162.8 566.4,175.2 				"/>
			</g>
		</g>
	</g>
</g>
<g>
	<g>
		<g enable-background="new    ">
			<g>
				<polygon fill="#795A77" points="456.7,243.1 433.9,230.7 433.8,230.4 456.6,242.8 				"/>
			</g>
			<g>
				<polygon fill="#80607E" points="403.8,343.4 381,331 405.6,234.7 428.4,247.1 				"/>
			</g>
			<g>
				<polygon fill="#80607E" points="428.4,247.1 405.6,234.7 405.7,234.4 428.5,246.8 				"/>
			</g>
			<g>
				<polygon fill="#B589B1" points="456.6,242.8 456.7,243.1 485.2,331.9 403.8,343.4 428.4,247.1 428.5,246.8 				"/>
			</g>
			<g>
				<polygon fill="#9A7597" points="428.5,246.8 405.7,234.4 433.8,230.4 456.6,242.8 				"/>
			</g>
			<g>
				<polygon fill="#9A7597" points="404.1,175.5 381.3,163.1 462.7,151.6 485.5,164 				"/>
			</g>
			<g>
				<polygon fill="#795A77" points="428.4,247.1 405.6,234.7 381.3,163.1 404.1,175.5 				"/>
			</g>
			<g>
				<polygon fill="#B589B1" points="485.5,164 456.7,243.1 456.6,242.8 428.5,246.8 428.4,247.1 404.1,175.5 				"/>
			</g>
		</g>
	</g>
</g>
<g>
	<g>
		<g enable-background="new    ">
			<g>
				<polygon fill="#1B135B" points="299.1,219.9 276.3,207.5 276.4,170.6 299.2,183 				"/>
			</g>
			<g>
				<polygon fill="#2F2F86" points="299.2,183 306.8,190.8 328.7,215.7 313.8,217.8 299.1,219.9 				"/>
			</g>
		</g>
		<g enable-background="new    ">
			<g>
				<polygon fill="#272473" points="218.5,317.2 195.7,304.8 276.2,293.5 299,305.9 				"/>
			</g>
			<g>
				<polygon fill="#221D68" points="207.4,333.1 184.6,320.7 195.7,304.8 218.5,317.2 				"/>
			</g>
			<g>
				<polygon fill="#2F2F86" points="299,305.9 312.7,318.3 207.4,333.1 218.5,317.2 				"/>
			</g>
		</g>
		<g enable-background="new    ">
			<g>
				<polygon fill="#1B135B" points="272.6,191.9 249.8,179.5 249.8,173.9 272.6,186.3 				"/>
			</g>
			<g>
				<polygon fill="#272473" points="272.6,186.3 249.8,173.9 276.4,170.2 299.2,182.6 				"/>
			</g>
			<g enable-background="new    ">
				<defs>
					<path id="SVGID_1_" enable-background="new    " d="M261,205l-22.8-12.4c6.4-0.9,11.6-6.7,11.6-13l22.8,12.4
						C272.6,198.2,267.4,204.1,261,205z"/>
				</defs>
				<clipPath id="SVGID_2_">
					<use xlink:href="#SVGID_1_"  overflow="visible"/>
				</clipPath>
				<g clip-path="url(#SVGID_2_)" enable-background="new    ">
					<path fill="#24206D" d="M261,205l-22.8-12.4c1.3-0.2,2.5-0.6,3.7-1.1l22.8,12.4C263.6,204.4,262.3,204.8,261,205"/>
					<path fill="#231F6B" d="M264.7,203.9l-22.8-12.4c0.7-0.3,1.3-0.7,2-1.1l22.8,12.4C266,203.2,265.4,203.5,264.7,203.9"/>
					<path fill="#221D68" d="M266.7,202.7l-22.8-12.4c0.5-0.3,1-0.7,1.4-1.1l22.8,12.4C267.6,202,267.2,202.4,266.7,202.7"/>
					<path fill="#211B66" d="M268.1,201.6l-22.8-12.4c0.4-0.4,0.8-0.8,1.2-1.2l22.8,12.4C268.9,200.9,268.5,201.2,268.1,201.6"/>
					<path fill="#1F1964" d="M269.2,200.4L246.4,188c0.4-0.4,0.7-0.8,1-1.2l22.8,12.4C269.9,199.6,269.6,200,269.2,200.4"/>
					<path fill="#1E1861" d="M270.2,199.2l-22.8-12.4c0.3-0.4,0.6-0.9,0.9-1.4l22.8,12.4C270.8,198.3,270.5,198.7,270.2,199.2"/>
					<path fill="#1D165F" d="M271.1,197.8l-22.8-12.4c0.3-0.6,0.6-1.1,0.8-1.7l22.8,12.4C271.6,196.7,271.4,197.2,271.1,197.8"/>
					<path fill="#1B145C" d="M271.9,196.1l-22.8-12.4c0.5-1.3,0.8-2.7,0.8-4.1l22.8,12.4C272.6,193.4,272.3,194.8,271.9,196.1"/>
				</g>
			</g>
			<g>
				<polygon fill="#272473" points="256.8,205.6 234,193.2 238.2,192.6 261,205 				"/>
			</g>
			<g enable-background="new    ">
				<defs>
					<path id="SVGID_3_" enable-background="new    " d="M250.2,204.5l-22.8-12.4c1.9,1,4.1,1.4,6.6,1.1l22.8,12.4
						C254.3,205.9,252.1,205.5,250.2,204.5z"/>
				</defs>
				<clipPath id="SVGID_4_">
					<use xlink:href="#SVGID_3_"  overflow="visible"/>
				</clipPath>
				<g clip-path="url(#SVGID_4_)" enable-background="new    ">
					<path fill="#221D68" d="M250.2,204.5l-22.8-12.4c0.1,0.1,0.2,0.1,0.4,0.2l22.8,12.4C250.4,204.6,250.3,204.5,250.2,204.5"/>
					<path fill="#231F6B" d="M250.6,204.6l-22.8-12.4c0.6,0.3,1.2,0.5,1.9,0.7l22.8,12.4C251.8,205.2,251.2,204.9,250.6,204.6"/>
					<path fill="#24206D" d="M252.5,205.3l-22.8-12.4c1.3,0.3,2.8,0.4,4.3,0.2l22.8,12.4C255.3,205.8,253.8,205.7,252.5,205.3"/>
				</g>
			</g>
			<g>
				<polygon fill="#272473" points="218.7,193.9 195.9,181.5 222.5,177.8 245.3,190.2 				"/>
			</g>
			<g>
				<polygon fill="#1B135B" points="218.5,317.2 195.7,304.8 195.9,181.5 218.7,193.9 				"/>
			</g>
			<g>
				<path fill="#2F2F86" d="M299.2,182.6l0,0.4l-0.1,36.9l-0.2,86.1l-80.5,11.3l0.2-123.4l26.6-3.7l0,5.6c0,6.3,5.2,10.7,11.5,9.8
					l4.2-0.6c6.4-0.9,11.6-6.7,11.6-13l0-5.6L299.2,182.6z"/>
			</g>
			<g>
				<polygon fill="#221E69" points="210.7,204.3 187.9,191.9 195.9,181.5 218.7,193.9 				"/>
			</g>
			<g>
				<polygon fill="#2F2F86" points="218.7,193.9 218.7,212.5 218.6,231.2 203.7,233.3 188.7,235.4 210.7,204.3 				"/>
			</g>
			<g>
				<polygon fill="#221D68" points="188.7,235.4 165.9,223 187.9,191.9 210.7,204.3 				"/>
			</g>
		</g>
	</g>
</g>
</svg>
