<?xml version="1.0" encoding="utf-8"?>
<!-- Generator: Adobe Illustrator 18.1.1, SVG Export Plug-In . SVG Version: 6.00 Build 0)  -->
<svg version="1.1" id="Layer_1" xmlns="http://www.w3.org/2000/svg" xmlns:xlink="http://www.w3.org/1999/xlink" x="0px" y="0px"
	 viewBox="0 0 841.9 595.3" enable-background="new 0 0 841.9 595.3" xml:space="preserve">
<g>
	<g>
		<g enable-background="new    ">
			<g enable-background="new    ">
				<defs>
					<path id="SVGID_1_" enable-background="new    " d="M333.7,225.5l19.4-18.5c3.1-2.9,7.8-3.9,12.5-2.4l-19.4,18.5
						C341.5,221.6,336.8,222.6,333.7,225.5z"/>
				</defs>
				<clipPath id="SVGID_2_">
					<use xlink:href="#SVGID_1_"  overflow="visible"/>
				</clipPath>
				<g clip-path="url(#SVGID_2_)" enable-background="new    ">
					<path fill="#710722" d="M333.7,225.5l19.4-18.5c0.8-0.8,1.7-1.4,2.7-1.9l-19.4,18.5C335.4,224.2,334.5,224.8,333.7,225.5"/>
					<path fill="#720823" d="M336.4,223.7l19.4-18.5c0.4-0.2,0.8-0.4,1.2-0.5l-19.4,18.5C337.2,223.3,336.8,223.5,336.4,223.7"/>
					<path fill="#740924" d="M337.6,223.2l19.4-18.5c0.3-0.1,0.6-0.2,1-0.3l-19.4,18.5C338.2,223,337.9,223.1,337.6,223.2"/>
					<path fill="#750A25" d="M338.6,222.9l19.4-18.5c0.3-0.1,0.6-0.1,0.9-0.2l-19.4,18.5C339.1,222.7,338.8,222.8,338.6,222.9"/>
					<path fill="#770B26" d="M339.4,222.7l19.4-18.5c0.3-0.1,0.5-0.1,0.8-0.1l-19.4,18.5C339.9,222.6,339.7,222.6,339.4,222.7"/>
					<path fill="#790C27" d="M340.2,222.5l19.4-18.5c0.3,0,0.5-0.1,0.8-0.1L341,222.5C340.7,222.5,340.5,222.5,340.2,222.5"/>
					<path fill="#7A0D28" d="M341,222.5l19.4-18.5c0.2,0,0.5,0,0.7,0l-19.4,18.5C341.5,222.4,341.2,222.5,341,222.5"/>
					<path fill="#7C0E28" d="M341.7,222.4l19.4-18.5c0.2,0,0.5,0,0.7,0l-19.4,18.5C342.2,222.4,341.9,222.4,341.7,222.4"/>
					<path fill="#7E0E29" d="M342.4,222.5l19.4-18.5c0.2,0,0.5,0,0.7,0l-19.4,18.5C342.9,222.5,342.6,222.5,342.4,222.5"/>
					<path fill="#7F0F2A" d="M343.1,222.5l19.4-18.5c0.2,0,0.5,0,0.7,0.1l-19.4,18.5C343.6,222.6,343.3,222.5,343.1,222.5"/>
					<path fill="#81102B" d="M343.8,222.6l19.4-18.5c0.2,0,0.5,0.1,0.7,0.1l-19.4,18.5C344.2,222.7,344,222.6,343.8,222.6"/>
					<path fill="#83112C" d="M344.5,222.7l19.4-18.5c0.2,0,0.5,0.1,0.7,0.2l-19.4,18.5C344.9,222.8,344.7,222.7,344.5,222.7"/>
					<path fill="#84122D" d="M345.2,222.9l19.4-18.5c0.2,0.1,0.5,0.1,0.7,0.2L345.9,223C345.6,223,345.4,222.9,345.2,222.9"/>
					<path fill="#86132D" d="M345.9,223l19.4-18.5c0.1,0,0.3,0.1,0.4,0.1l-19.4,18.5C346.1,223.1,346,223.1,345.9,223"/>
				</g>
			</g>
			<g enable-background="new    ">
				<defs>
					<path id="SVGID_3_" enable-background="new    " d="M346.3,223.2l19.4-18.5c1.2,0.4,2.4,0.9,3.6,1.7l-19.4,18.5
						C348.7,224.1,347.5,223.6,346.3,223.2z"/>
				</defs>
				<clipPath id="SVGID_4_">
					<use xlink:href="#SVGID_3_"  overflow="visible"/>
				</clipPath>
				<g clip-path="url(#SVGID_4_)" enable-background="new    ">
					<path fill="#86132D" d="M346.3,223.2l19.4-18.5c0.1,0,0.2,0.1,0.3,0.1l-19.4,18.5C346.5,223.2,346.4,223.2,346.3,223.2"/>
					<path fill="#88132E" d="M346.6,223.3l19.4-18.5c0.3,0.1,0.5,0.2,0.8,0.3l-19.4,18.5C347.1,223.5,346.8,223.4,346.6,223.3"/>
					<path fill="#89142F" d="M347.3,223.6l19.4-18.5c0.3,0.1,0.5,0.2,0.8,0.4l-19.4,18.5C347.9,223.8,347.6,223.7,347.3,223.6"/>
					<path fill="#8B1530" d="M348.2,223.9l19.4-18.5c0.3,0.1,0.6,0.3,0.9,0.4L349,224.4C348.7,224.2,348.4,224.1,348.2,223.9"/>
					<path fill="#8D1631" d="M349,224.4l19.4-18.5c0.3,0.1,0.5,0.3,0.8,0.5l-19.4,18.5C349.6,224.7,349.3,224.5,349,224.4"/>
				</g>
			</g>
			<g>
				<polygon fill="#7D0E29" points="403.1,257.7 422.5,239.3 417.4,270.4 398,288.9 				"/>
			</g>
			<g>
				<polygon fill="#921833" points="349.8,224.8 369.2,206.4 422.5,239.3 403.1,257.7 				"/>
			</g>
			<g>
				<path fill="#7D0E29" d="M346.3,223.2c1.2,0.4,2.4,0.9,3.6,1.7l53.2,32.9l-5.1,31.1l-58.1-3.3c-1.3-0.1-2.5-0.3-3.7-0.7
					c-7.3-2.4-12.7-10.2-11.5-17.7l5.7-35.1C331.7,224.5,338.9,220.8,346.3,223.2z"/>
			</g>
			<g>
				<polygon fill="#8B1530" points="403.1,257.7 422.5,239.3 454.7,249.7 435.2,268.2 				"/>
			</g>
			<g>
				<polygon fill="#7D0E29" points="435.2,268.2 454.7,249.7 449.6,280.9 430.2,299.3 				"/>
			</g>
			<g>
				<polygon fill="#7D0E29" points="435.2,268.2 430.2,299.3 398,288.9 403.1,257.7 				"/>
			</g>
			<g enable-background="new    ">
				<defs>
					<path id="SVGID_5_" enable-background="new    " d="M518.9,313.1l-19.4,18.5c1.7-1.6,2.9-3.8,3.3-6.4l19.4-18.5
						C521.8,309.3,520.6,311.5,518.9,313.1z"/>
				</defs>
				<clipPath id="SVGID_6_">
					<use xlink:href="#SVGID_5_"  overflow="visible"/>
				</clipPath>
				<g clip-path="url(#SVGID_6_)" enable-background="new    ">
					<path fill="#7A0D28" d="M502.8,325.1l19.4-18.5c0,0.1,0,0.2-0.1,0.3l-19.4,18.5C502.8,325.3,502.8,325.2,502.8,325.1"/>
					<path fill="#790C27" d="M502.8,325.4l19.4-18.5c0,0.3-0.1,0.5-0.2,0.7l-19.4,18.5C502.7,325.9,502.7,325.7,502.8,325.4"/>
					<path fill="#770B26" d="M502.6,326.2l19.4-18.5c-0.1,0.3-0.1,0.5-0.2,0.8l-19.4,18.5C502.5,326.7,502.5,326.4,502.6,326.2"/>
					<path fill="#750A25" d="M502.4,326.9l19.4-18.5c-0.1,0.3-0.2,0.6-0.3,0.8l-19.4,18.5C502.2,327.5,502.3,327.2,502.4,326.9"/>
					<path fill="#740924" d="M502.1,327.8l19.4-18.5c-0.1,0.3-0.3,0.6-0.4,0.9l-19.4,18.5C501.8,328.4,502,328.1,502.1,327.8"/>
					<path fill="#720823" d="M501.7,328.7l19.4-18.5c-0.2,0.4-0.4,0.7-0.6,1.1l-19.4,18.5C501.3,329.4,501.5,329,501.7,328.7"/>
					<path fill="#710722" d="M501.1,329.7l19.4-18.5c-0.4,0.7-1,1.3-1.5,1.8l-19.4,18.5C500.1,331,500.6,330.4,501.1,329.7"/>
				</g>
			</g>
			<g>
				<polygon fill="#7D0E29" points="508.6,290 528,271.5 522.2,306.6 502.8,325.1 				"/>
			</g>
			<g>
				<polygon fill="#81102B" points="435.2,268.2 454.7,249.7 512.7,253.1 493.3,271.6 				"/>
			</g>
			<g enable-background="new    ">
				<defs>
					<path id="SVGID_7_" enable-background="new    " d="M493.3,271.6l19.4-18.5c1.3,0.1,2.5,0.3,3.7,0.7l-19.4,18.5
						C495.9,271.9,494.6,271.6,493.3,271.6z"/>
				</defs>
				<clipPath id="SVGID_8_">
					<use xlink:href="#SVGID_7_"  overflow="visible"/>
				</clipPath>
				<g clip-path="url(#SVGID_8_)" enable-background="new    ">
					<path fill="#7E0E29" d="M493.3,271.6l19.4-18.5c0.2,0,0.3,0,0.5,0l-19.4,18.5C493.7,271.6,493.5,271.6,493.3,271.6"/>
					<path fill="#7F0F2A" d="M493.8,271.6l19.4-18.5c0.2,0,0.5,0.1,0.7,0.1l-19.4,18.5C494.3,271.6,494.1,271.6,493.8,271.6"/>
					<path fill="#81102B" d="M494.5,271.7l19.4-18.5c0.2,0,0.5,0.1,0.7,0.1l-19.4,18.5C495,271.8,494.8,271.7,494.5,271.7"/>
					<path fill="#83112C" d="M495.2,271.8l19.4-18.5c0.2,0,0.5,0.1,0.7,0.2L495.9,272C495.7,271.9,495.5,271.8,495.2,271.8"/>
					<path fill="#84122D" d="M495.9,272l19.4-18.5c0.2,0.1,0.5,0.1,0.7,0.2l-19.4,18.5C496.4,272.1,496.2,272,495.9,272"/>
					<path fill="#86132D" d="M496.7,272.1l19.4-18.5c0.1,0,0.3,0.1,0.4,0.1l-19.4,18.5C496.9,272.2,496.8,272.2,496.7,272.1"/>
				</g>
			</g>
			<g>
				<path fill="#7D0E29" d="M497.1,272.3c7.3,2.4,12.7,10.2,11.5,17.7l-5.7,35.1c-1.2,7.5-8.5,11.2-15.8,8.8
					c-1.2-0.4-2.4-0.9-3.6-1.7l-53.3-32.9l5.1-31.1l58.1,3.3C494.6,271.6,495.9,271.9,497.1,272.3z"/>
			</g>
			<g enable-background="new    ">
				<defs>
					<path id="SVGID_9_" enable-background="new    " d="M497.1,272.3l19.4-18.5c7.3,2.4,12.7,10.2,11.5,17.7L508.6,290
						C509.8,282.5,504.4,274.6,497.1,272.3z"/>
				</defs>
				<clipPath id="SVGID_10_">
					<use xlink:href="#SVGID_9_"  overflow="visible"/>
				</clipPath>
				<g clip-path="url(#SVGID_10_)" enable-background="new    ">
					<path fill="#86132D" d="M497.1,272.3l19.4-18.5c0.1,0,0.2,0.1,0.3,0.1l-19.4,18.5C497.3,272.3,497.2,272.3,497.1,272.3"/>
					<path fill="#88132E" d="M497.4,272.4l19.4-18.5c0.2,0.1,0.5,0.2,0.7,0.3l-19.4,18.5C497.9,272.6,497.6,272.5,497.4,272.4"/>
					<path fill="#89142F" d="M498.1,272.7l19.4-18.5c0.3,0.1,0.5,0.2,0.8,0.4L498.9,273C498.7,272.9,498.4,272.8,498.1,272.7"/>
					<path fill="#8B1530" d="M498.9,273l19.4-18.5c0.3,0.1,0.6,0.3,0.9,0.4l-19.4,18.5C499.5,273.3,499.2,273.2,498.9,273"/>
					<path fill="#8D1631" d="M499.8,273.5l19.4-18.5c0.3,0.2,0.7,0.4,1,0.6L500.8,274C500.4,273.8,500.1,273.6,499.8,273.5"/>
					<path fill="#8E1632" d="M500.8,274l19.4-18.5c0.4,0.3,0.8,0.5,1.2,0.8l-19.4,18.5C501.6,274.6,501.2,274.3,500.8,274"/>
					<path fill="#901732" d="M501.9,274.9l19.4-18.5c1.8,1.4,3.3,3,4.4,4.9l-19.4,18.5C505.2,277.9,503.7,276.2,501.9,274.9"/>
					<path fill="#8E1632" d="M506.4,279.8l19.4-18.5c0.3,0.4,0.5,0.9,0.7,1.3l-19.4,18.5C506.9,280.7,506.6,280.2,506.4,279.8"/>
					<path fill="#8D1631" d="M507.1,281.1l19.4-18.5c0.2,0.3,0.3,0.7,0.5,1l-19.4,18.5C507.4,281.8,507.3,281.4,507.1,281.1"/>
					<path fill="#8B1530" d="M507.6,282.1l19.4-18.5c0.1,0.3,0.2,0.6,0.3,0.9L507.9,283C507.8,282.7,507.7,282.4,507.6,282.1"/>
					<path fill="#89142F" d="M507.9,283l19.4-18.5c0.1,0.3,0.2,0.5,0.3,0.8l-19.4,18.5C508.1,283.6,508,283.3,507.9,283"/>
					<path fill="#88132E" d="M508.2,283.8l19.4-18.5c0.1,0.3,0.1,0.5,0.2,0.8l-19.4,18.5C508.3,284.3,508.2,284.1,508.2,283.8"/>
					<path fill="#86132D" d="M508.4,284.6l19.4-18.5c0.1,0.2,0.1,0.5,0.2,0.7l-19.4,18.5C508.5,285.1,508.4,284.8,508.4,284.6"/>
					<path fill="#84122D" d="M508.5,285.3l19.4-18.5c0,0.2,0.1,0.5,0.1,0.7l-19.4,18.5C508.6,285.8,508.6,285.6,508.5,285.3"/>
					<path fill="#83112C" d="M508.6,286.1l19.4-18.5c0,0.2,0.1,0.5,0.1,0.7l-19.4,18.5C508.7,286.5,508.6,286.3,508.6,286.1"/>
					<path fill="#81102B" d="M508.7,286.8l19.4-18.5c0,0.2,0,0.5,0,0.7l-19.4,18.5C508.7,287.2,508.7,287,508.7,286.8"/>
					<path fill="#7F0F2A" d="M508.7,287.4l19.4-18.5c0,0.2,0,0.5,0,0.7l-19.4,18.5C508.7,287.9,508.7,287.7,508.7,287.4"/>
					<path fill="#7E0E29" d="M508.7,288.1l19.4-18.5c0,0.2,0,0.5,0,0.7l-19.4,18.5C508.7,288.6,508.7,288.4,508.7,288.1"/>
					<path fill="#7C0E28" d="M508.7,288.8l19.4-18.5c0,0.2,0,0.5-0.1,0.7l-19.4,18.5C508.6,289.3,508.7,289.1,508.7,288.8"/>
					<path fill="#7A0D28" d="M508.6,289.6l19.4-18.5c0,0.1,0,0.3-0.1,0.4L508.6,290C508.6,289.8,508.6,289.7,508.6,289.6"/>
				</g>
			</g>
		</g>
	</g>
</g>
</svg>
